<svg xmlns="http://www.w3.org/2000/svg" xmlns:xlink="http://www.w3.org/1999/xlink" width="25.676" height="25.677" viewBox="0 0 25.676 25.677">
  <defs>
    <clipPath id="clip-path">
      <rect id="Rectangle_175" data-name="Rectangle 175" width="25.676" height="25.677" fill="none"/>
    </clipPath>
  </defs>
  <g id="Group_93" data-name="Group 93" clip-path="url(#clip-path)">
    <path id="Path_74" data-name="Path 74" d="M28.713,7.679,25.321,4.287,27.988,1.62,31.38,5.012ZM17.37,19.022,13.978,15.63,24.372,5.236l3.392,3.392Zm-1.956,1.956H12.022V17.586l1.007-1.007,3.392,3.392ZM32.805,4.537,28.465.2a.671.671,0,0,0-.949,0L23.9,3.812h0l-13.02,13.02a.6.6,0,0,0-.084.1.387.387,0,0,0-.027.05c-.012.022-.025.043-.034.065a.674.674,0,0,0-.021.066c0,.02-.014.038-.017.058a.654.654,0,0,0-.014.131v4.341a.671.671,0,0,0,.671.671h4.341a.663.663,0,0,0,.131-.014c.02,0,.038-.012.058-.017s.045-.012.068-.021a.526.526,0,0,0,.064-.034.54.54,0,0,0,.053-.028.614.614,0,0,0,.1-.084L29.187,9.1h0l3.616-3.616A.672.672,0,0,0,32.805,4.537Z" transform="translate(-7.325 0)" fill="#161615"/>
    <path id="Path_75" data-name="Path 75" d="M24.166,9.383a.672.672,0,0,0-.672.672V26.165H1.341V4.011H17.452a.672.672,0,0,0,0-1.343H.671A.672.672,0,0,0,0,3.34v23.5a.672.672,0,0,0,.671.672h23.5a.672.672,0,0,0,.672-.672V10.053a.672.672,0,0,0-.673-.67Z" transform="translate(0 -1.829)" fill="#161615"/>
  </g>
</svg>
