<svg xmlns="http://www.w3.org/2000/svg" xmlns:xlink="http://www.w3.org/1999/xlink" width="57.571" height="39.203" viewBox="0 0 57.571 39.203">
  <defs>
    <clipPath id="clip-path">
      <rect id="Rectangle_170" data-name="Rectangle 170" width="57.571" height="39.203" fill="#fff"/>
    </clipPath>
  </defs>
  <g id="Group_87" data-name="Group 87" transform="translate(0 0)">
    <g id="Group_80" data-name="Group 80" transform="translate(0 0)" clip-path="url(#clip-path)">
      <path id="Path_66" data-name="Path 66" d="M2.024,21.395a1.4,1.4,0,0,1-1.818-.3,1.326,1.326,0,0,1,.379-1.818L28.091.329a1.14,1.14,0,0,1,1.439,0L57.036,19.274A1.282,1.282,0,0,1,55.6,21.395L28.773,2.9Zm10.989,16.52A1.235,1.235,0,0,1,11.724,39.2a1.279,1.279,0,0,1-1.289-1.289V18.592A1.329,1.329,0,0,1,11.724,17.3a1.278,1.278,0,0,1,1.289,1.289Zm28.795-1.289A1.329,1.329,0,0,1,43.1,37.914,1.279,1.279,0,0,1,41.808,39.2H15.891A1.279,1.279,0,0,1,14.6,37.914a1.329,1.329,0,0,1,1.289-1.289Zm2.728-18.034A1.329,1.329,0,0,1,45.824,17.3a1.279,1.279,0,0,1,1.289,1.289V37.914a1.289,1.289,0,1,1-2.578,0Zm-18.415,15a1.235,1.235,0,0,1-1.289,1.289,1.279,1.279,0,0,1-1.289-1.289V22.3a1.279,1.279,0,0,1,1.289-1.289h7.88A1.235,1.235,0,0,1,34,22.3v11.29a1.235,1.235,0,0,1-1.289,1.289,1.279,1.279,0,0,1-1.289-1.289V23.516h-5.3V33.594ZM37.11,3.511a1.228,1.228,0,0,1-1.439-1.06,1.228,1.228,0,0,1,1.06-1.44L43.172.026a1.3,1.3,0,0,1,1.515,1.061l1.06,6.29a1.34,1.34,0,0,1-1.06,1.515,1.281,1.281,0,0,1-1.44-1.061l-.91-5.077Z" transform="translate(0 0)" fill="#fff"/>
    </g>
  </g>
</svg>
