<svg xmlns="http://www.w3.org/2000/svg" width="40.711" height="50.109" viewBox="0 0 40.711 50.109">
  <g id="Group_275" data-name="Group 275" transform="translate(-450.918 -120.666)">
    <path id="Path_2547" data-name="Path 2547" d="M471.273,177.458c-7.83,0-14.093-1.409-14.093-3.133s6.263-3.133,14.093-3.133,14.093,1.409,14.093,3.133S479.1,177.458,471.273,177.458Zm0-10.96c-11.274,0-20.355,3.444-20.355,7.83s9.081,7.83,20.355,7.83,20.355-3.444,20.355-7.83S482.548,166.5,471.273,166.5Z" transform="translate(0 -11.384)" fill="#f7d253"/>
    <path id="Path_2548" data-name="Path 2548" d="M473.343,141.021a6.262,6.262,0,1,1,6.263-6.262A6.281,6.281,0,0,1,473.343,141.021Zm0-20.355a14.033,14.033,0,0,0-14.093,14.093c0,7.83,14.093,29.751,14.093,29.751s14.093-21.923,14.093-29.751A14.033,14.033,0,0,0,473.343,120.666Z" transform="translate(-2.07)"/>
  </g>
</svg>
