<svg xmlns="http://www.w3.org/2000/svg" width="45.453" height="48.394" viewBox="0 0 45.453 48.394">
  <g id="Group_10839" data-name="Group 10839" transform="translate(-522 -568.879)">
    <text id="_7" data-name="7" transform="translate(547 603.5)" fill="#f7d253" font-size="25" font-family="Assistant-Bold, Assistant" font-weight="700"><tspan x="-6" y="0">7</tspan></text>
    <path id="Path_2549" data-name="Path 2549" d="M277.39,676.264h11.278a1.249,1.249,0,1,0,0-2.5H277.39a1.249,1.249,0,0,0,0,2.5Zm1.617-9.11a1.248,1.248,0,0,0,1.249,1.249H291.53a1.249,1.249,0,1,0,0-2.5H280.256a1.25,1.25,0,0,0-1.249,1.249Zm-2.861-7.9a1.248,1.248,0,0,0,1.243,1.249h11.278a1.249,1.249,0,1,0,0-2.5H277.39A1.249,1.249,0,0,0,276.146,659.252Zm43.311-7.169a1.251,1.251,0,1,0,1.77-1.768l-4.376-4.355a1.249,1.249,0,0,0-1.748,1.764l1.293,1.293-2.587,2.587a20.563,20.563,0,0,0-12.488-5.186v-4.5h4.32a1.249,1.249,0,0,0,0-2.5H294.482a1.249,1.249,0,0,0,0,2.5h4.32v4.5h0a20.6,20.6,0,0,0-13.422,6.045,1.25,1.25,0,1,0,1.768,1.768,18.254,18.254,0,1,1,0,25.815,1.249,1.249,0,0,0-1.768,1.758,20.749,20.749,0,0,0,30.2-28.431l2.587-2.587Z" transform="translate(245.859 -70.546)"/>
  </g>
</svg>
