<svg xmlns="http://www.w3.org/2000/svg" width="75.727" height="40.522" viewBox="0 0 75.727 40.522">
  <g id="Group_274" data-name="Group 274" transform="translate(1984.701 853.39)">
    <path id="Path_117" data-name="Path 117" d="M384.234,205.808v8.659h13.389l-6.693-8.746-6.693.089Zm-23.742,19.726a2.991,2.991,0,0,0-3.036,2.946,2.991,2.991,0,0,0,5.982,0A2.971,2.971,0,0,0,360.492,225.534Zm4.909-.356h15.887V196.886H348.532v28.292h7.052a5.888,5.888,0,0,1,4.909-2.677,6.016,6.016,0,0,1,4.909,2.677Zm26.33.356a2.947,2.947,0,1,0,0,5.892,2.914,2.914,0,0,0,2.946-2.946A2.972,2.972,0,0,0,391.731,225.534Zm-5.978,2.587H366.385a5.948,5.948,0,1,1-11.871,0h-7.407a1.5,1.5,0,0,1-1.518-1.518V195.455a1.5,1.5,0,0,1,1.518-1.518h35.7a1.432,1.432,0,0,1,1.428,1.518v7.407l7.317-.089a1.605,1.605,0,0,1,1.339.624l8.835,11.6a1.108,1.108,0,0,1,.356.983V226.6a1.453,1.453,0,0,1-1.518,1.518h-2.946a5.948,5.948,0,1,1-11.871,0Zm13.386-10.714H384.232v7.765h2.5a6.174,6.174,0,0,1,5-2.677,5.918,5.918,0,0,1,4.909,2.677h2.5v-7.765Z" transform="translate(-2311.059 -1047.327)"/>
    <g id="Group_11" data-name="Group 11" transform="translate(-1984.701 -844.049)">
      <path id="Path_118" data-name="Path 118" d="M302.907,198.432a1.487,1.487,0,0,1,1.518,1.428,1.564,1.564,0,0,1-1.518,1.518H291.036a1.5,1.5,0,0,1-1.518-1.518,1.432,1.432,0,0,1,1.518-1.428Z" transform="translate(-289.518 -198.432)" fill="#f7d253"/>
      <path id="Path_119" data-name="Path 119" d="M303.812,208.115a1.505,1.505,0,0,1,1.518,1.518,1.488,1.488,0,0,1-1.518,1.428h-8.925a1.488,1.488,0,0,1-1.518-1.428,1.5,1.5,0,0,1,1.518-1.518Z" transform="translate(-290.424 -200.708)" fill="#f7d253"/>
      <path id="Path_120" data-name="Path 120" d="M304.746,217.8a1.518,1.518,0,1,1,0,3.036h-5.979a1.521,1.521,0,0,1,0-3.036Z" transform="translate(-291.357 -202.985)" fill="#f7d253"/>
    </g>
  </g>
</svg>
