<svg id="Group_90" data-name="Group 90" xmlns="http://www.w3.org/2000/svg" xmlns:xlink="http://www.w3.org/1999/xlink" width="47.438" height="47.438" viewBox="0 0 47.438 47.438">
  <defs>
    <clipPath id="clip-path">
      <rect id="Rectangle_173" data-name="Rectangle 173" width="47.438" height="47.438" fill="#fff" stroke="#363636" stroke-width="1"/>
    </clipPath>
  </defs>
  <g id="Group_89" data-name="Group 89" clip-path="url(#clip-path)">
    <path id="Path_71" data-name="Path 71" d="M35.165,41.942a6.775,6.775,0,1,1,4.793-1.984A6.777,6.777,0,0,1,35.165,41.942Zm0-16.942a10.166,10.166,0,1,0,7.188,2.977A10.167,10.167,0,0,0,35.165,25" transform="translate(-11.446 -11.446)" fill="#fff" stroke="#363636" stroke-width="1"/>
    <path id="Path_72" data-name="Path 72" d="M44.049,25.413H41.593a3.388,3.388,0,0,0-3.2,2.473,15.482,15.482,0,0,1-1.355,3.253,3.387,3.387,0,0,0,.525,4.016l1.694,1.694-2.321,2.372a.507.507,0,0,1-.271-.17l-1.542-1.542a3.387,3.387,0,0,0-4.015-.525,15.256,15.256,0,0,1-3.253,1.355,3.387,3.387,0,0,0-2.44,3.253v2.456H22.025V41.593a3.388,3.388,0,0,0-2.473-3.2A15.425,15.425,0,0,1,16.3,37.035a3.394,3.394,0,0,0-1.694-.44,3.24,3.24,0,0,0-2.321.966l-1.694,1.694L8.217,36.933a.506.506,0,0,1,.17-.271l1.542-1.542a3.386,3.386,0,0,0,.525-4.015A15.482,15.482,0,0,1,9.1,27.853a3.387,3.387,0,0,0-3.253-2.44H3.388V22.025H5.845a3.388,3.388,0,0,0,3.2-2.474A15.449,15.449,0,0,1,10.4,16.3a3.387,3.387,0,0,0-.525-4.015L8.183,10.589,10.5,8.217a.506.506,0,0,1,.271.17l1.542,1.542a3.387,3.387,0,0,0,4.015.525A15.494,15.494,0,0,1,19.585,9.1a3.387,3.387,0,0,0,2.44-3.253V3.388h3.388V5.845a3.389,3.389,0,0,0,2.474,3.2A15.249,15.249,0,0,1,31.14,10.4a3.386,3.386,0,0,0,4.015-.525l1.694-1.694L39.221,10.5a.5.5,0,0,1-.17.271L37.51,12.317a3.386,3.386,0,0,0-.525,4.015,15.482,15.482,0,0,1,1.355,3.253,3.387,3.387,0,0,0,3.253,2.44h2.456Zm0-6.777H41.644a16.245,16.245,0,0,0-1.694-3.947l1.541-1.542a3.387,3.387,0,0,0,.2-4.981L39.289,5.743a3.39,3.39,0,0,0-4.795,0L32.8,7.438a16.522,16.522,0,0,0-4-1.593V3.388A3.391,3.391,0,0,0,25.413,0H22.025a3.388,3.388,0,0,0-3.388,3.388V5.794a16.2,16.2,0,0,0-3.947,1.694L13.147,5.947a3.388,3.388,0,0,0-4.981-.2L5.743,8.149a3.39,3.39,0,0,0,0,4.795l1.694,1.694a16.522,16.522,0,0,0-1.593,4H3.388A3.388,3.388,0,0,0,0,22.025v3.388A3.391,3.391,0,0,0,3.388,28.8H5.794a16.245,16.245,0,0,0,1.694,3.947L5.947,34.291a3.388,3.388,0,0,0-.2,4.981l2.405,2.405a3.39,3.39,0,0,0,4.795,0l1.694-1.694a16.522,16.522,0,0,0,4,1.593v2.473a3.391,3.391,0,0,0,3.388,3.388h3.388A3.391,3.391,0,0,0,28.8,44.049V41.644a16.245,16.245,0,0,0,3.947-1.694l1.542,1.541a3.387,3.387,0,0,0,4.981.2l2.406-2.405a3.39,3.39,0,0,0,0-4.795L39.983,32.8a16.513,16.513,0,0,0,1.61-4h2.456a3.391,3.391,0,0,0,3.388-3.388V22.025a3.391,3.391,0,0,0-3.388-3.388" fill="#fff" stroke="#363636" stroke-width="1"/>
  </g>
</svg>
