<svg xmlns="http://www.w3.org/2000/svg" xmlns:xlink="http://www.w3.org/1999/xlink" width="17.291" height="20.19" viewBox="0 0 17.291 20.19">
  <defs>
    <clipPath id="clip-path">
      <rect id="Rectangle_166" data-name="Rectangle 166" width="17.291" height="20.19" fill="#363636"/>
    </clipPath>
  </defs>
  <g id="Group_78" data-name="Group 78" clip-path="url(#clip-path)">
    <path id="Path_65" data-name="Path 65" d="M6.458,1.845a.791.791,0,0,1,.791-.791h2.794a.791.791,0,0,1,.791.791V3.058H6.458Zm7.2,14.338h0a3.163,3.163,0,0,1-3.163,2.952H6.8a3.163,3.163,0,0,1-3.163-2.952l-.791-12.1H14.471Zm-11.07.079A4.219,4.219,0,0,0,6.8,20.19h3.69a4.218,4.218,0,0,0,4.217-3.928l.818-12.151h1.766V3.057h-5.4V1.845A1.846,1.846,0,0,0,10.043,0H7.248A1.846,1.846,0,0,0,5.4,1.845V3.058H0V4.112H1.766Z" transform="translate(0 0)" fill="#363636"/>
    <rect id="Rectangle_164" data-name="Rectangle 164" width="9.726" height="1.055" transform="translate(9.892 16.343) rotate(-88.301)" fill="#363636"/>
    <rect id="Rectangle_165" data-name="Rectangle 165" width="1.055" height="9.729" transform="translate(6.033 6.663) rotate(-1.675)" fill="#363636"/>
  </g>
</svg>
