<svg xmlns="http://www.w3.org/2000/svg" width="106.155" height="51.883" viewBox="0 0 106.155 51.883">
  <g id="Group_5" data-name="Group 5" transform="translate(-28.51 -37.725)">
    <path id="path13" d="M59.139,70.627a1.82,1.82,0,0,0-1.819-1.821H57.27a1.868,1.868,0,0,0-1.935,1.8v.02h0v.152a11.155,11.155,0,0,1-.91,4.483,11.567,11.567,0,0,1-6.133,6.127,11.18,11.18,0,0,1-4.483.916H43.1a4.981,4.981,0,0,1-.728-.085,11.322,11.322,0,0,1-3.943-1.28,11.831,11.831,0,0,1-3.191-2.53A11.614,11.614,0,0,1,33.1,74.94a11.12,11.12,0,0,1-.776-4.143,10.918,10.918,0,0,1,.916-4.453,12.33,12.33,0,0,1,2.475-3.64,11.525,11.525,0,0,1,3.64-2.493,10.966,10.966,0,0,1,4.453-.91,11.373,11.373,0,0,1,4.459.88A11.716,11.716,0,0,1,51.5,62.249l-7.134,7.122h0a1.819,1.819,0,0,0,.429,2.538c.022.016.045.032.069.047a1.856,1.856,0,0,0,2.6-.337l.011-.015h0l8.663-8.663a1.073,1.073,0,0,0,0-1.511l-1.492-1.5a15.558,15.558,0,0,0-4.938-3.318A15.034,15.034,0,0,0,43.8,55.4a14.871,14.871,0,0,0-5.884,1.213,16.308,16.308,0,0,0-4.962,3.324,15.851,15.851,0,0,0-3.288,4.956,15.171,15.171,0,0,0-1.159,5.884,14.859,14.859,0,0,0,1.037,5.46,15.814,15.814,0,0,0,2.827,4.7,15.512,15.512,0,0,0,4.246,3.373,14.825,14.825,0,0,0,5.308,1.711c.322.042.607.067.94.091s.607,0,.946,0a15.362,15.362,0,0,0,5.909-1.159,14.789,14.789,0,0,0,4.938-3.349,15.53,15.53,0,0,0,3.349-4.962,15.287,15.287,0,0,0,1.128-5.866Z" transform="translate(0 -6.953)" fill="gray"/>
    <path id="path11" d="M173.54,85.186,162.967,58.87a2.638,2.638,0,0,1-.237-1.092,1.947,1.947,0,0,1,2.056-1.82,1.692,1.692,0,0,1,1.686,1.213l8.808,23.446L183.993,57a1.675,1.675,0,0,1,1.547-1.213A1.82,1.82,0,0,1,187.46,57.5c0,.019,0,.039,0,.058a3.209,3.209,0,0,1-.3,1.086L175.876,88.219c-2.366,5.957-4.416,8.456-9.894,8.493-1.668,0-2.366-.552-2.378-1.7s.558-1.82,1.941-1.82c4.556-.042,5.745-2.305,6.982-5.369Z" transform="translate(-52.798 -7.104)" fill="gray"/>
    <path id="path9" d="M135.43,50.291c.133-8.038,4.283-12.709,10.919-12.563a14.788,14.788,0,0,1,2.942.285,1.777,1.777,0,0,1,1.5,1.729,1.559,1.559,0,0,1-1.375,1.723,1.582,1.582,0,0,1-.294.005c-.813,0-1.444-.17-2.657-.17-4.956,0-6.916,2.936-7.146,8.359h6.515a1.79,1.79,0,0,1,0,3.573h-6.54v23a1.935,1.935,0,0,1-3.864,0Z" transform="translate(-42.059 0)" fill="gray"/>
    <path id="path7" d="M105.088,57.859a1.887,1.887,0,0,1,1.951-1.821h.008a1.821,1.821,0,0,1,1.9,1.733c0,.029,0,.058,0,.087V73.716c0,6.631-3.98,11.526-11.3,11.526S86.41,80.34,86.41,73.716V57.859a1.82,1.82,0,0,1,1.818-1.822l.087,0a1.869,1.869,0,0,1,1.9,1.82V73.831c0,4.616,2.657,7.886,7.437,7.886s7.437-3.282,7.437-7.886Z" transform="translate(-22.776 -7.203)" fill="gray"/>
  </g>
</svg>
