<svg xmlns="http://www.w3.org/2000/svg" width="33.066" height="21.533" viewBox="0 0 33.066 21.533">
  <g id="Group_221" data-name="Group 221" transform="translate(-1419.827 -3652.068)">
    <path id="Path_2480" data-name="Path 2480" d="M-1676.9-1296.052h-30.2l15.9,12.613Z" transform="translate(3127.908 4948.924)" fill="#72e3e3"/>
    <path id="Path_2478" data-name="Path 2478" d="M315.109,104.68l-10.326-8.987,10.294-8.277Zm-29.4.747,10.142-8.89,3.6,2.9a.555.555,0,0,0,.7,0l3.6-2.9,10.142,8.89ZM284.442,87.4l10.313,8.292-10.32,9.032Zm29.266-.65L299.763,97.966l-3.632-2.916-10.313-8.284Zm2.6-.748a.759.759,0,0,0,0-.172v-.037a.35.35,0,0,0,0-.082.911.911,0,0,0-.082-.142l-.051-.067a.836.836,0,0,0-.127-.1l-.057-.037a.55.55,0,0,0-.222-.052H283.821a.516.516,0,0,0-.215.052l-.063.037a.635.635,0,0,0-.121.1l-.057.067a.943.943,0,0,0-.082.142.281.281,0,0,0-.032.082v.037a1.508,1.508,0,0,0,0,.172v20.165c0,.032,0,.066,0,.1a.324.324,0,0,0,0,.112.728.728,0,0,0,.063.165v.052a.633.633,0,0,0,.178.179h.032a.5.5,0,0,0,.26.075h31.89a.562.562,0,0,0,.26-.075l.057-.045a.581.581,0,0,0,.146-.142h.032V106.5a.879.879,0,0,0,.051-.112.766.766,0,0,0,0-.172.185.185,0,0,0,0-.06V86.04s.089-.022.089-.037Z" transform="translate(1136.581 3566.753)"/>
  </g>
</svg>
