<svg xmlns="http://www.w3.org/2000/svg" xmlns:xlink="http://www.w3.org/1999/xlink" width="39.439" height="37.075" viewBox="0 0 39.439 37.075">
  <defs>
    <clipPath id="clip-path">
      <rect id="Rectangle_171" data-name="Rectangle 171" width="39.439" height="37.075" fill="#fff"/>
    </clipPath>
  </defs>
  <g id="Group_88" data-name="Group 88" transform="translate(0 0)">
    <g id="Group_81" data-name="Group 81" transform="translate(0 0)" clip-path="url(#clip-path)">
      <path id="Path_67" data-name="Path 67" d="M35.374,35.449H4.065A2.442,2.442,0,0,1,1.626,33.01v-21.1H37.812v21.1A2.442,2.442,0,0,1,35.374,35.449ZM4.065,1.626H35.373a2.442,2.442,0,0,1,2.439,2.439V10.28H1.626V4.065A2.442,2.442,0,0,1,4.065,1.626ZM35.374,0H4.065A4.071,4.071,0,0,0,0,4.065V33.01a4.071,4.071,0,0,0,4.065,4.065H35.373a4.071,4.071,0,0,0,4.065-4.065l0-28.945A4.071,4.071,0,0,0,35.374,0Z" transform="translate(0 0)" fill="#fff"/>
      <path id="Path_68" data-name="Path 68" d="M25.724,9.715a.96.96,0,1,1-.96.96.962.962,0,0,1,.96-.96m0,3.545a2.586,2.586,0,1,0-2.586-2.586,2.588,2.588,0,0,0,2.586,2.586" transform="translate(-13.506 -4.722)" fill="#fff"/>
      <path id="Path_69" data-name="Path 69" d="M40.333,9.715a.96.96,0,1,1-.96.96.961.961,0,0,1,.96-.96m0,3.545a2.586,2.586,0,1,0-2.586-2.586,2.588,2.588,0,0,0,2.586,2.586" transform="translate(-22.034 -4.722)" fill="#fff"/>
      <path id="Path_70" data-name="Path 70" d="M11.114,9.715a.96.96,0,1,1-.96.96.961.961,0,0,1,.96-.96m0,3.545a2.586,2.586,0,1,0-2.586-2.586,2.588,2.588,0,0,0,2.586,2.586" transform="translate(-4.978 -4.722)" fill="#fff"/>
    </g>
  </g>
</svg>
