<svg xmlns="http://www.w3.org/2000/svg" width="33.709" height="32.702" viewBox="0 0 33.709 32.702">
  <g id="Group_2" data-name="Group 2" transform="translate(-313.957 -413.3)">
    <path id="Path_7" data-name="Path 7" d="M335.577,473.786a2.063,2.063,0,1,1,2.02,2.022A2.021,2.021,0,0,1,335.577,473.786Zm6.611,0a4.59,4.59,0,1,0-4.591,4.548,4.591,4.591,0,0,0,4.591-4.548Z" transform="translate(-11.028 -32.333)"/>
    <path id="Path_8" data-name="Path 8" d="M365.833,473.9a2.063,2.063,0,0,1,2.022-2.021,2.022,2.022,0,0,1,2.02,2.021,1.979,1.979,0,0,1-2.02,2.022,2.022,2.022,0,0,1-2.022-2.022Zm6.569,0a4.548,4.548,0,1,0-1.331,3.216A4.547,4.547,0,0,0,372.4,473.9Z" transform="translate(-28.567 -32.45)"/>
    <path id="Path_9" data-name="Path 9" d="M342.066,431.724a2.021,2.021,0,0,1-2.022,1.517H326.233a2.107,2.107,0,0,1-2.064-1.684L322.4,422.67h22.319Zm4.338-11.581H321.9l-.969-4.968a1.391,1.391,0,0,0-1.01-1.012l-4.422-.842a1.307,1.307,0,0,0-1.517,1.012,1.266,1.266,0,0,0,1.01,1.474l3.622.673,3.075,15.5a4.672,4.672,0,0,0,4.548,3.747h13.811a4.63,4.63,0,0,0,4.465-3.326l3.116-10.7a1.309,1.309,0,0,0-.211-1.1,1.263,1.263,0,0,0-1.01-.464Z"/>
  </g>
</svg>
